# xmcd
#
# Track frame offsets:
#	150
#	15820
#	37199
#	58900
#	75530
#	101294
#	120723
#	133557
#	153265
#	172384
#	191241
#	205346
#	231604
#
# Disc length: 3311 seconds
#
# Revision: 0
# Processed by: cddbd v1.5.1PL0 Copyright (c) Steve Scherf et al.
# Submitted via: dBpowerAMP V4.0
#
DISCID=b40ced0d
DTITLE=The Fearless Freep - Go Cry
DYEAR=2002
DGENRE=Rock
TTITLE0=Day Barely Starts
TTITLE1=Carve It Up
TTITLE2=Somewhen
TTITLE3=Don't Stare
TTITLE4=Cardboard Stars
TTITLE5=Go Cry
TTITLE6=Piss Off
TTITLE7=Sentimental
TTITLE8=The Best Part
TTITLE9=Hills Above Bilbao
TTITLE10=Say Your Goodbyes
TTITLE11=A Fable
TTITLE12=Burn It Down
EXTD=
EXTT0=
EXTT1=
EXTT2=
EXTT3=
EXTT4=
EXTT5=
EXTT6=
EXTT7=
EXTT8=
EXTT9=
EXTT10=
EXTT11=
EXTT12=
PLAYORDER=
